<mxfile host="app.diagrams.net" agent="Mozilla/5.0 (Windows NT 10.0; Win64; x64) AppleWebKit/537.36 (KHTML, like Gecko) Chrome/129.0.0.0 Safari/537.36" version="24.7.16">
  <diagram name="Page-1" id="-vACYr4yuzwrCyouQwha">
    <mxGraphModel dx="1900" dy="557" grid="1" gridSize="10" guides="1" tooltips="1" connect="1" arrows="1" fold="1" page="1" pageScale="1" pageWidth="850" pageHeight="1100" math="0" shadow="0">
      <root>
        <mxCell id="0" />
        <mxCell id="1" parent="0" />
        <mxCell id="NeJymIsDZ8Xq7OyWZPhs-1" value="&lt;p style=&quot;margin:0px;margin-top:4px;margin-left:5px;text-align:left;&quot;&gt;interaction UserLogin&lt;/p&gt;" style="html=1;shape=mxgraph.sysml.package;overflow=fill;labelX=201;align=left;spacingLeft=5;verticalAlign=top;spacingTop=-3;" parent="1" vertex="1">
          <mxGeometry x="10" y="40" width="830" height="770" as="geometry" />
        </mxCell>
        <mxCell id="NeJymIsDZ8Xq7OyWZPhs-3" value="&lt;u&gt;:LoginUI&lt;/u&gt;" style="rounded=0;whiteSpace=wrap;html=1;" parent="1" vertex="1">
          <mxGeometry x="310" y="240" width="130" height="80" as="geometry" />
        </mxCell>
        <mxCell id="NeJymIsDZ8Xq7OyWZPhs-4" value="" style="shape=umlBoundary;whiteSpace=wrap;html=1;" parent="1" vertex="1">
          <mxGeometry x="410" y="245" width="24" height="20" as="geometry" />
        </mxCell>
        <mxCell id="NeJymIsDZ8Xq7OyWZPhs-5" value="" style="endArrow=none;html=1;rounded=0;exitX=0;exitY=0.5;exitDx=0;exitDy=0;entryX=0.084;entryY=0.312;entryDx=0;entryDy=0;entryPerimeter=0;" parent="1" source="NeJymIsDZ8Xq7OyWZPhs-3" target="NeJymIsDZ8Xq7OyWZPhs-1" edge="1">
          <mxGeometry width="50" height="50" relative="1" as="geometry">
            <mxPoint x="330" y="290" as="sourcePoint" />
            <mxPoint x="110.32000000000005" y="280.39" as="targetPoint" />
          </mxGeometry>
        </mxCell>
        <mxCell id="NeJymIsDZ8Xq7OyWZPhs-6" value="" style="endArrow=classic;html=1;rounded=0;entryX=0.408;entryY=0.129;entryDx=0;entryDy=0;entryPerimeter=0;" parent="1" edge="1">
          <mxGeometry width="50" height="50" relative="1" as="geometry">
            <mxPoint x="119.92" y="268.57" as="sourcePoint" />
            <mxPoint x="279.99999999999994" y="268.85999999999996" as="targetPoint" />
          </mxGeometry>
        </mxCell>
        <mxCell id="NeJymIsDZ8Xq7OyWZPhs-7" value="1.0 : Login(usernae,password)" style="text;html=1;align=center;verticalAlign=middle;whiteSpace=wrap;rounded=0;" parent="1" vertex="1">
          <mxGeometry x="50" y="235" width="290" height="30" as="geometry" />
        </mxCell>
        <mxCell id="NeJymIsDZ8Xq7OyWZPhs-10" value="&lt;u&gt;:LoginControl&lt;/u&gt;" style="rounded=0;whiteSpace=wrap;html=1;" parent="1" vertex="1">
          <mxGeometry x="680" y="240" width="130" height="80" as="geometry" />
        </mxCell>
        <mxCell id="NeJymIsDZ8Xq7OyWZPhs-11" value="" style="endArrow=none;html=1;rounded=0;entryX=1;entryY=0.5;entryDx=0;entryDy=0;exitX=0;exitY=0.5;exitDx=0;exitDy=0;" parent="1" source="NeJymIsDZ8Xq7OyWZPhs-10" target="NeJymIsDZ8Xq7OyWZPhs-3" edge="1">
          <mxGeometry width="50" height="50" relative="1" as="geometry">
            <mxPoint x="630" y="280" as="sourcePoint" />
            <mxPoint x="440" y="279.40999999999997" as="targetPoint" />
          </mxGeometry>
        </mxCell>
        <mxCell id="NeJymIsDZ8Xq7OyWZPhs-12" value="1.1: Login(username,password)" style="text;html=1;align=center;verticalAlign=middle;whiteSpace=wrap;rounded=0;" parent="1" vertex="1">
          <mxGeometry x="410" y="245" width="290" height="20" as="geometry" />
        </mxCell>
        <mxCell id="NeJymIsDZ8Xq7OyWZPhs-13" value="" style="endArrow=classic;html=1;rounded=0;entryX=0.783;entryY=0.299;entryDx=0;entryDy=0;entryPerimeter=0;" parent="1" target="NeJymIsDZ8Xq7OyWZPhs-1" edge="1">
          <mxGeometry width="50" height="50" relative="1" as="geometry">
            <mxPoint x="460" y="270" as="sourcePoint" />
            <mxPoint x="510" y="220" as="targetPoint" />
          </mxGeometry>
        </mxCell>
        <mxCell id="NeJymIsDZ8Xq7OyWZPhs-16" value="" style="endArrow=classic;html=1;rounded=0;exitX=0.795;exitY=0.257;exitDx=0;exitDy=0;exitPerimeter=0;" parent="1" edge="1">
          <mxGeometry width="50" height="50" relative="1" as="geometry">
            <mxPoint x="669.8500000000001" y="290.00000000000006" as="sourcePoint" />
            <mxPoint x="457.7551020408164" y="290.43" as="targetPoint" />
          </mxGeometry>
        </mxCell>
        <mxCell id="NeJymIsDZ8Xq7OyWZPhs-17" value="1.2 [if validate login ] : Login Success&lt;div&gt;1.2* [ If invalid login ] [i :=1..3] :&amp;nbsp; Re-Enter Login()&lt;/div&gt;" style="text;html=1;align=center;verticalAlign=middle;whiteSpace=wrap;rounded=0;" parent="1" vertex="1">
          <mxGeometry x="410" y="310" width="290" height="20" as="geometry" />
        </mxCell>
        <mxCell id="NeJymIsDZ8Xq7OyWZPhs-18" value="&lt;u&gt;:UserDatabase&lt;/u&gt;" style="rounded=0;whiteSpace=wrap;html=1;" parent="1" vertex="1">
          <mxGeometry x="295" y="650" width="130" height="80" as="geometry" />
        </mxCell>
        <mxCell id="NeJymIsDZ8Xq7OyWZPhs-19" value="" style="endArrow=none;html=1;rounded=0;entryX=0.25;entryY=1;entryDx=0;entryDy=0;exitX=1;exitY=0.25;exitDx=0;exitDy=0;" parent="1" source="NeJymIsDZ8Xq7OyWZPhs-18" target="NeJymIsDZ8Xq7OyWZPhs-10" edge="1">
          <mxGeometry width="50" height="50" relative="1" as="geometry">
            <mxPoint x="430" y="460" as="sourcePoint" />
            <mxPoint x="480" y="410" as="targetPoint" />
          </mxGeometry>
        </mxCell>
        <mxCell id="NeJymIsDZ8Xq7OyWZPhs-20" value="1.1.1 :Check (User Details)" style="text;html=1;align=center;verticalAlign=middle;whiteSpace=wrap;rounded=0;" parent="1" vertex="1">
          <mxGeometry x="510" y="510" width="290" height="20" as="geometry" />
        </mxCell>
        <mxCell id="NeJymIsDZ8Xq7OyWZPhs-21" value="" style="endArrow=classic;html=1;rounded=0;entryX=0.807;entryY=0.442;entryDx=0;entryDy=0;entryPerimeter=0;" parent="1" target="NeJymIsDZ8Xq7OyWZPhs-1" edge="1">
          <mxGeometry width="50" height="50" relative="1" as="geometry">
            <mxPoint x="480" y="630" as="sourcePoint" />
            <mxPoint x="660.0000000000003" y="410" as="targetPoint" />
          </mxGeometry>
        </mxCell>
        <mxCell id="NeJymIsDZ8Xq7OyWZPhs-22" value="" style="endArrow=classic;html=1;rounded=0;" parent="1" edge="1">
          <mxGeometry width="50" height="50" relative="1" as="geometry">
            <mxPoint x="660" y="360" as="sourcePoint" />
            <mxPoint x="460" y="610" as="targetPoint" />
          </mxGeometry>
        </mxCell>
        <mxCell id="NeJymIsDZ8Xq7OyWZPhs-23" value="1.1.2 : Get (user details)" style="text;html=1;align=center;verticalAlign=middle;whiteSpace=wrap;rounded=0;" parent="1" vertex="1">
          <mxGeometry x="330" y="480" width="290" height="20" as="geometry" />
        </mxCell>
        <mxCell id="NeJymIsDZ8Xq7OyWZPhs-24" value="" style="ellipse;shape=umlControl;whiteSpace=wrap;html=1;" parent="1" vertex="1">
          <mxGeometry x="780" y="250" width="20" height="20" as="geometry" />
        </mxCell>
        <mxCell id="NeJymIsDZ8Xq7OyWZPhs-25" value="" style="ellipse;shape=umlEntity;whiteSpace=wrap;html=1;" parent="1" vertex="1">
          <mxGeometry x="400" y="660" width="20" height="20" as="geometry" />
        </mxCell>
        <mxCell id="NeJymIsDZ8Xq7OyWZPhs-32" value="" style="endArrow=none;html=1;rounded=0;exitX=0;exitY=0.5;exitDx=0;exitDy=0;entryX=0.25;entryY=0;entryDx=0;entryDy=0;" parent="1" source="NeJymIsDZ8Xq7OyWZPhs-18" target="NeJymIsDZ8Xq7OyWZPhs-18" edge="1">
          <mxGeometry width="50" height="50" relative="1" as="geometry">
            <mxPoint x="230" y="650" as="sourcePoint" />
            <mxPoint x="310" y="600" as="targetPoint" />
            <Array as="points">
              <mxPoint x="230" y="690" />
              <mxPoint x="230" y="600" />
              <mxPoint x="328" y="600" />
            </Array>
          </mxGeometry>
        </mxCell>
        <mxCell id="NeJymIsDZ8Xq7OyWZPhs-33" value="" style="endArrow=classic;html=1;rounded=0;exitX=0.253;exitY=0.818;exitDx=0;exitDy=0;exitPerimeter=0;" parent="1" source="NeJymIsDZ8Xq7OyWZPhs-1" edge="1">
          <mxGeometry width="50" height="50" relative="1" as="geometry">
            <mxPoint x="170" y="670" as="sourcePoint" />
            <mxPoint x="220" y="620" as="targetPoint" />
          </mxGeometry>
        </mxCell>
        <mxCell id="NeJymIsDZ8Xq7OyWZPhs-34" value="1.1.1.1 :Validate(user details )" style="text;html=1;align=center;verticalAlign=middle;whiteSpace=wrap;rounded=0;" parent="1" vertex="1">
          <mxGeometry x="-10" y="640" width="290" height="20" as="geometry" />
        </mxCell>
        <mxCell id="NeJymIsDZ8Xq7OyWZPhs-35" value="User" style="shape=umlActor;html=1;verticalLabelPosition=bottom;verticalAlign=top;align=center;" parent="1" vertex="1">
          <mxGeometry x="30" y="245" width="30" height="60" as="geometry" />
        </mxCell>
      </root>
    </mxGraphModel>
  </diagram>
</mxfile>
